<svg width="352" height="89" viewBox="0 0 352 89" fill="none" xmlns="http://www.w3.org/2000/svg">
<g clip-path="url(#clip0_998_109596)">
<g clip-path="url(#clip1_998_109596)">
<path d="M364.99 0H-17V131H364.99V0Z" fill="#D2D7F0"/>
<path d="M337.49 32.6202C323.51 23.7802 306.93 20.9002 290.8 24.5302C274.66 28.1502 260.9 37.8502 252.06 51.8202C246.09 61.2402 242.78 72.0702 242.47 83.1602C241.97 101.42 249.66 118.97 263.02 131H365V57.8602C355.9 47.1502 346.08 38.0702 337.49 32.6202Z" fill="#949CE3"/>
<path d="M214.19 0C214.23 0.02 214.27 0.05 214.31 0.07C225.01 6.44 231.22 20.27 232.38 39.81C232.71 45.31 232.64 51.26 232.16 57.63C230.4 80.65 223.33 106.02 214.56 120.77C212.92 123.53 211.07 126.14 209.04 128.57C209.04 128.57 209.04 128.58 209.03 128.58C208.35 129.41 207.65 130.21 206.91 131H205.94H132.66H115.71C108.85 123.55 103.9 114.47 101.34 104.37C97.2599 88.34 99.6799 71.68 108.13 57.47C112.86 49.51 120.58 40.46 129.8 31.83C129.8 31.82 129.81 31.82 129.82 31.81C135.22 26.75 141.14 21.84 147.28 17.37C158.16 9.45 168.76 3.57 178.45 0H214.19Z" fill="#949CE3"/>
<path d="M86.69 64.9C85.51 69.55 83.82 73.99 81.67 78.15C80.66 80.11 79.55 82.01 78.34 83.84C77.12 85.7 75.79 87.48 74.37 89.19C69.92 94.57 64.52 99.2 58.34 102.87C48.76 108.57 37.83 111.58 26.74 111.58C10.23 111.58 -5.51 104.89 -17 93.49V0H65.88C71.7 6.19 76.54 12.38 79.9 18.01C85.31 27.1 88.25 37.2 88.6 47.49C88.79 53.28 88.16 59.13 86.69 64.9Z" fill="#949CE3"/>
<path d="M93.5 56.6C90.86 67.01 85.63 76.33 78.34 83.84C74.64 87.67 70.41 91.02 65.71 93.82C56.32 99.4 45.61 102.35 34.74 102.35C13.72 102.35 -6.03 91.3 -17 73.44V0H79.28C82.28 3.67 84.84 7.26 86.85 10.63C95.13 24.57 97.5 40.89 93.5 56.6Z" fill="#67A421"/>
<path d="M88.6 47.49C86.82 63.86 77.64 79.24 62.42 88.29C54.04 93.27 44.48 95.9 34.77 95.9C15.68 95.9 -2.22 85.74 -11.94 69.39C-13.7 66.43 -15.4 62.95 -17 59.1V0H70.79C75.11 4.84 78.73 9.59 81.31 13.92C87.56 24.42 89.84 36.19 88.6 47.49Z" fill="#FFE3AC"/>
<path d="M36.14 73.63C50.8749 73.63 62.82 61.685 62.82 46.95C62.82 32.2151 50.8749 20.27 36.14 20.27C21.405 20.27 9.45996 32.2151 9.45996 46.95C9.45996 61.685 21.405 73.63 36.14 73.63Z" fill="#FFCF70"/>
<path d="M33.57 69.0001C48.305 69.0001 60.25 57.0551 60.25 42.3201C60.25 27.5852 48.305 15.6401 33.57 15.6401C18.8351 15.6401 6.89001 27.5852 6.89001 42.3201C6.89001 57.0551 18.8351 69.0001 33.57 69.0001Z" fill="#672A16"/>
<path d="M31.11 59.8398C43.1332 59.8398 52.88 50.093 52.88 38.0698C52.88 26.0466 43.1332 16.2998 31.11 16.2998C19.0867 16.2998 9.33997 26.0466 9.33997 38.0698C9.33997 50.093 19.0867 59.8398 31.11 59.8398Z" fill="#9A3F21"/>
<path d="M365 41.0502V131H282.18C281.16 130.43 280.18 129.84 279.25 129.25C260.89 117.63 249.87 96.9002 250.47 75.1602C250.78 64.0702 254.09 53.2402 260.06 43.8202C268.9 29.8502 282.66 20.1502 298.8 16.5302C314.93 12.9002 331.51 15.7802 345.49 24.6202C351.61 28.5002 358.34 34.2202 365 41.0502Z" fill="#10462D"/>
<path d="M365 41.0504V47.2904C358.38 38.4304 351.01 30.2304 343.79 23.6104C344.36 23.9404 344.93 24.2704 345.49 24.6204C351.61 28.5004 358.34 34.2104 365 41.0504Z" fill="#142328"/>
<path d="M308.254 101.224C310.843 96.3704 306.472 88.9841 298.49 84.7259C290.508 80.4678 281.939 80.9503 279.35 85.8036C276.76 90.6569 281.132 98.0432 289.114 102.301C297.095 106.56 305.665 106.077 308.254 101.224Z" fill="#FFE3AC"/>
<path d="M306.754 100.424C308.901 96.3986 304.843 90.0421 297.69 86.2259C290.537 82.4097 282.997 82.5789 280.85 86.6038C278.702 90.6288 282.761 96.9853 289.914 100.801C297.067 104.618 304.607 104.449 306.754 100.424Z" fill="#FA9269"/>
<path d="M285.469 88.1241L284.758 89.4448L302.157 98.813L302.868 97.4923L285.469 88.1241Z" fill="#10462D"/>
<path d="M297.64 92.3298C297.01 90.2198 294.77 89.0197 292.66 89.6497L292.23 88.2097C295.14 87.3397 298.21 88.9897 299.08 91.8997L297.64 92.3298Z" fill="#FFE3AC"/>
<path d="M87.9 10.01C86 6.82 83.62 3.45 80.85 0H77.69C80.93 3.9 83.67 7.7 85.79 11.26C93.91 24.91 96.23 40.91 92.32 56.3C90.27 64.37 86.64 71.76 81.67 78.15C77.17 83.94 71.57 88.9 65.08 92.76C55.88 98.24 45.39 101.13 34.74 101.13C13.85 101.13 -5.76 89.99 -16.42 72.05C-16.61 71.72 -16.81 71.39 -17 71.05V75.72C-5.62 92.98 13.95 103.58 34.74 103.58C45.83 103.58 56.76 100.57 66.34 94.87C69.19 93.18 71.87 91.28 74.37 89.19C84.35 80.91 91.44 69.72 94.69 56.9C98.77 40.88 96.35 24.22 87.9 10.01Z" fill="#10462D"/>
<path d="M230.87 0H169.64C164.95 2.7 160.14 5.83 155.28 9.37C138.64 21.48 123.64 36.85 116.13 49.47C107.68 63.68 105.26 80.34 109.34 96.37C112.91 110.43 121.1 122.53 132.66 131H205.94C212.56 126.16 218.26 120 222.56 112.77C231.33 98.02 238.4 72.65 240.16 49.63C241.83 27.61 238.57 10.51 230.87 0Z" fill="#10462D"/>
<path d="M230.87 0C238.57 10.51 241.83 27.61 240.16 49.63C238.4 72.65 231.33 98.02 222.56 112.77C218.95 118.84 214.35 124.16 209.04 128.57C208.03 129.42 207 130.23 205.94 131H173.99C190.88 127.52 205.9 117.06 214.86 101.99C223.51 87.45 230.52 62.57 232.38 39.81C232.41 39.49 232.44 39.18 232.46 38.86C233.65 23.22 232.35 10.07 228.74 0H230.87V0Z" fill="#142328"/>
<path d="M191.67 57.0202C185.5 60.5802 181.66 66.0002 181.64 70.4702L193.65 77.2402C196.23 76.7902 198.97 75.8102 201.63 74.2702C209.46 69.7502 213.57 62.2302 210.82 57.4602C208.07 52.6902 199.5 52.5002 191.67 57.0202Z" fill="#FFE3AC"/>
<path d="M208.55 65.4204C206.93 68.2204 204.18 70.8404 200.79 72.8004C197.83 74.5104 194.36 75.6004 191.28 75.8004L183.42 71.4804C183.13 69.8604 183.59 67.8904 184.76 65.8704C186.38 63.0704 189.13 60.4504 192.52 58.5004C195.99 56.5004 199.85 55.3904 203.11 55.4704C204.85 55.5104 207.97 55.9304 209.35 58.3204C210.4 60.1304 210.11 62.7204 208.55 65.4204Z" fill="#FA9269"/>
<path d="M204.856 60.0829L187.744 69.9648L188.494 71.2638L205.607 61.3819L204.856 60.0829Z" fill="#10462D"/>
<path d="M196.67 71.18C196.2 71.18 195.72 71.12 195.25 70.99L195.64 69.54C197.77 70.11 199.97 68.84 200.54 66.71L201.99 67.1C201.33 69.56 199.1 71.18 196.67 71.18Z" fill="#FFE3AC"/>
<path d="M192.81 64.6402L191.36 64.2502C192.15 61.3202 195.16 59.5702 198.1 60.3602L197.71 61.8102C195.57 61.2402 193.38 62.5102 192.81 64.6402Z" fill="#FFE3AC"/>
<path d="M184.95 69.4502C188.58 69.3702 191.81 72.5102 193.65 77.2402L181.64 70.4702C182.67 69.8402 183.78 69.4702 184.95 69.4502Z" fill="#FFE3AC"/>
</g>
</g>
<defs>
<clipPath id="clip0_998_109596">
<rect width="352" height="89" fill="white"/>
</clipPath>
<clipPath id="clip1_998_109596">
<rect width="382" height="131" fill="white" transform="translate(-17)"/>
</clipPath>
</defs>
</svg>
