<svg width="118" height="101" viewBox="0 0 118 101" fill="none" xmlns="http://www.w3.org/2000/svg">
<g clip-path="url(#clip0_812_136807)">
<path d="M64.6727 47.4018L35.5901 99.8942L88.4111 100.5L117.499 48.0076L64.6727 47.4018ZM98.463 59.0964C97.3798 61.0575 95.2647 62.9981 92.3025 64.9951L82.4149 71.4893H83.2055C88.4214 71.5509 90.2234 76.4587 86.5527 83.0864C82.2198 90.9102 72.9278 96.6497 64.2466 96.547C57.3879 96.47 53.6968 93.3179 54.3026 87.0342L64.298 82.8964C63.7127 86.3771 65.5865 88.1842 68.9851 88.215C72.3836 88.2458 76.1723 86.0793 77.9435 82.8605C79.6171 79.8316 78.2977 77.9116 74.8991 77.8756H72.7173C69.9861 77.8448 69.3906 75.93 70.4893 73.8508C71.3312 72.3107 72.8867 70.9554 74.9248 69.5795L86.0856 62.3461C86.3177 62.2681 86.5144 62.1097 86.64 61.8995C86.7067 61.7762 86.5835 61.7762 86.4603 61.7762L69.8629 61.5914L74.5808 53.0746L94.9823 53.3056C99.3511 53.3313 100.188 56.0059 98.4733 59.0964H98.463Z" fill="#FFD600"/>
<path d="M29.5939 0.5L0.500977 52.9873L35.5901 99.8942L64.6727 47.4018L29.5939 0.5ZM49.2355 48.1411C48.2088 49.9789 46.5455 50.9595 44.3636 51.3445L37.0429 52.3148L37.5563 52.9668C40.806 57.315 41.078 65.6317 37.6282 71.864C33.5212 79.2258 26.7344 79.6365 21.3234 72.4082C17.0521 66.6944 15.2964 59.2812 16.7698 51.0313L23.7465 53.4237C22.7711 57.7976 23.6233 61.843 25.7436 64.6717C27.8638 67.5004 30.6001 67.5517 32.2788 64.5228C33.86 61.6684 33.3672 57.9157 31.2521 55.087L29.8865 53.2594C29.1179 52.1969 28.6486 50.9475 28.5276 49.6417C28.4066 48.336 28.6383 47.0217 29.1986 45.836C29.5538 45.1914 30.0605 44.6429 30.6749 44.2378C31.2893 43.8327 31.9931 43.583 32.7254 43.5104L40.9651 42.5401C41.1396 42.5709 41.2526 42.612 41.3861 42.3707C41.4477 42.2578 41.3861 42.1551 41.2988 42.0576L30.9081 28.2222L35.3488 20.2084L48.0651 37.1703C50.8116 40.8152 50.8424 45.2302 49.2355 48.1411Z" fill="#FFD600"/>
<path d="M82.4098 1.10065L29.5939 0.5L64.6727 47.4018L117.499 48.0076L82.4098 1.10065ZM86.5989 42.3656C79.7248 42.2783 72.399 39.6704 65.6892 34.4905L70.7511 31.0919C74.2317 33.9719 78.1796 35.4607 81.5833 35.5018C84.9869 35.5429 86.2036 33.7461 84.2117 31.0971C82.343 28.6021 78.8008 26.9901 75.392 26.9901H73.1999C71.8789 26.9323 70.5843 26.6013 69.3976 26.0182C68.211 25.435 67.158 24.6122 66.3052 23.6018C65.8988 23.1253 65.6304 22.5468 65.5291 21.9288C65.4277 21.3108 65.4973 20.6768 65.7303 20.0955L68.3382 14.1506C68.446 14.0428 68.5281 13.9915 68.369 13.7861C68.2971 13.6834 68.1791 13.6834 68.0507 13.6783L51.3763 13.5037L46.1245 6.48593L66.5722 6.72209C70.9615 6.76315 74.9094 8.97579 76.8397 11.5273C77.3886 12.1938 77.7514 12.9937 77.8912 13.8457C78.0309 14.6978 77.9427 15.5717 77.6354 16.3786L75.4074 21.7177H76.2031C81.4344 21.7742 88.9348 25.8247 93.0161 31.2921C97.8161 37.7452 95.3006 42.458 86.5989 42.3656Z" fill="#FFD600"/>
</g>
<defs>
<clipPath id="clip0_812_136807">
<rect width="116.998" height="100" fill="white" transform="translate(0.500977 0.5)"/>
</clipPath>
</defs>
</svg>
