<svg width="526" height="28" viewBox="0 0 526 28" fill="none" xmlns="http://www.w3.org/2000/svg">
<rect y="13.5" width="240" height="1" fill="#F3F3F3"/>
<path d="M256.859 16.07C256.859 13.956 258.371 12.472 260.429 12.472C262.473 12.472 263.985 13.956 263.985 16.07C263.985 18.184 262.473 19.668 260.429 19.668C258.371 19.668 256.859 18.184 256.859 16.07ZM258.189 16.07C258.189 17.498 259.099 18.492 260.429 18.492C261.745 18.492 262.669 17.498 262.669 16.07C262.669 14.642 261.745 13.648 260.429 13.648C259.099 13.648 258.189 14.642 258.189 16.07ZM269.362 12.598V13.802H268.774C267.528 13.802 266.758 14.558 266.758 15.874V19.5H265.442V12.668H266.674L266.758 13.704C267.038 12.99 267.724 12.514 268.662 12.514C268.9 12.514 269.096 12.542 269.362 12.598Z" fill="#868686"/>
<rect x="286" y="13.5" width="240" height="1" fill="#F3F3F3"/>
</svg>
